<?xml version="1.0" encoding="UTF-8"?>
<svg version="1.1" xmlns="http://www.w3.org/2000/svg" width="500" height="500">
<path d="M0 0 C165 0 330 0 500 0 C500 165 500 330 500 500 C335 500 170 500 0 500 C0 335 0 170 0 0 Z " fill="#FEFDFD" transform="translate(0,0)"/>
<path d="M0 0 C165 0 330 0 500 0 C500 165 500 330 500 500 C335 500 170 500 0 500 C0 335 0 170 0 0 Z M15 37 C10.14677105 44.49947078 8.85038373 50.90112346 8.85955811 59.72781372 C8.85658698 60.61847373 8.85361586 61.50913374 8.8505547 62.42678344 C8.8418687 65.41750703 8.84035952 68.40819058 8.83886719 71.39892578 C8.83423888 73.54089951 8.8292142 75.68287242 8.82382202 77.82484436 C8.81069567 83.64947303 8.80425238 89.47409017 8.79981136 95.29873133 C8.7968805 98.93848355 8.79277562 102.57823261 8.78830719 106.21798325 C8.77463049 117.60791227 8.76496516 128.9978341 8.7611053 140.38777077 C8.75662657 153.53157384 8.73908792 166.67527281 8.7101047 179.81904423 C8.68847639 189.98055805 8.67840037 200.14204262 8.67706418 210.30357921 C8.67601681 216.37144463 8.67012357 222.43921221 8.65224457 228.50705338 C8.63574453 234.21814771 8.63361787 239.92907088 8.64238358 245.64018059 C8.64315296 247.73231274 8.6388243 249.82445416 8.62892532 251.91656303 C8.61616929 254.78133893 8.62210257 257.64551196 8.63250732 260.51028442 C8.62445092 261.33054521 8.61639452 262.15080599 8.60809398 262.99592316 C8.69527172 273.31869072 11.94063935 282.52987938 18.97265625 290.1328125 C30.08365523 300.75390852 41.39945709 300.56814331 55.95361328 300.45410156 C57.97476682 300.45297203 59.995922 300.453609 62.01707458 300.45587158 C67.48132943 300.45701553 72.94523044 300.43355772 78.40940332 300.40557575 C84.12821294 300.38050897 89.84703137 300.37821594 95.56588745 300.37347412 C106.38521035 300.36105986 117.20437088 300.32825915 128.02362239 300.28807616 C140.34524143 300.24331027 152.66686836 300.22135928 164.98854852 300.20129442 C190.32580967 300.15952517 215.66284834 300.08619206 241 300 C241 323.43 241 346.86 241 371 C236.71 371 232.42 371 228 371 C223.75895962 371.22266117 219.54377669 371.47824039 215.3125 371.8125 C214.18545654 371.90015625 213.05841309 371.9878125 211.8972168 372.078125 C203.84681541 372.74770193 195.95991226 373.82378143 188.01953125 375.28515625 C184.19507764 375.98891428 180.36178461 376.47669571 176.5 376.9375 C168.61623063 377.95448944 160.95381272 379.66067363 153.22460938 381.48095703 C151.12682997 381.9704082 149.02571902 382.43976386 146.921875 382.90234375 C138.28067421 384.82806721 129.7601325 387.12309893 121.25 389.5625 C120.21343262 389.85552002 119.17686523 390.14854004 118.10888672 390.45043945 C117.12936035 390.7362085 116.14983398 391.02197754 115.140625 391.31640625 C114.26954102 391.56849854 113.39845703 391.82059082 112.50097656 392.08032227 C108.68019549 393.48532835 105.75367303 395.0644059 103.1875 398.25 C101.66892674 401.76669597 101.59281517 404.19960827 102 408 C103.89715062 412.53208204 106.63090542 414.81545271 111 417 C117.68966294 416.60753977 123.99477653 414.29555692 130.375 412.375 C152.46434092 405.89955089 175.17125855 401.00250507 198 398 C198.71462402 397.90380371 199.42924805 397.80760742 200.16552734 397.70849609 C234.20934105 393.19209271 270.04637216 392.79583235 304 398 C305.47292735 398.21293356 306.94608757 398.42426031 308.41943359 398.63427734 C332.31486738 402.04942548 355.85162741 406.05478122 378.6784668 414.171875 C384.70591975 416.22777185 390.87629291 417.35813352 396.875 414.75 C399.90258939 412.25790517 399.90258939 412.25790517 402 409 C402.52711745 403.46526674 402.38073628 400.58493659 399 396 C373.00649828 378.96977473 331.34617999 377.30872712 301 373 C299.58992676 372.79866455 299.58992676 372.79866455 298.15136719 372.59326172 C286.69065838 371.00360819 275.68644734 371 264 371 C264 347.57 264 324.14 264 300 C270.12739746 300.02094727 276.25479492 300.04189453 282.56787109 300.06347656 C302.8041425 300.12973127 323.04041815 300.17413323 343.27676964 300.20724869 C355.54703683 300.22786243 367.81720117 300.25596049 380.08740234 300.30175781 C390.78373301 300.34166174 401.47998917 300.36744144 412.1763922 300.37635398 C417.83859902 300.38156265 423.50059273 300.39378051 429.16273117 300.42292023 C434.49624277 300.45014534 439.82945422 300.45843058 445.16302872 300.45243073 C447.11648949 300.45352778 449.06996069 300.46143917 451.02336121 300.4768219 C465.29029675 300.58362566 475.05626226 299.64332619 485.80078125 289.37109375 C492.88015572 281.73844668 495.30516174 274.15556826 495.26742554 263.87982178 C495.27422221 262.51676718 495.27422221 262.51676718 495.28115618 261.12617612 C495.29379943 258.08634412 495.29217984 255.0466913 495.29052734 252.00683594 C495.29651267 249.82515737 495.30331823 247.64348092 495.31088257 245.46180725 C495.32855025 239.53811498 495.33323831 233.6144805 495.33451414 227.69076443 C495.33593597 223.98834826 495.34020621 220.28594676 495.34550858 216.58353424 C495.36496808 202.99504558 495.37203879 189.40660243 495.37035771 175.81810084 C495.36959575 165.77890807 495.38518111 155.73983977 495.41162109 145.70068359 C495.44225006 134.03084317 495.45913682 122.36109472 495.45769465 110.69121194 C495.45718518 104.51827708 495.46286046 98.34550161 495.48405075 92.17259979 C495.50344402 86.36457929 495.50354987 80.55687003 495.48901749 74.74883842 C495.4869296 72.62122835 495.49162904 70.49359875 495.5037384 68.36602211 C495.60817016 49.51399918 495.60817016 49.51399918 485.91796875 33.81640625 C478.32120439 26.62191455 470.94975669 22.62809158 460.29684639 22.61968327 C459.56123417 22.61502335 458.82562195 22.61036343 458.06771845 22.6055623 C455.61324933 22.59365186 453.15933782 22.60299218 450.7048645 22.61231995 C448.92316981 22.60814529 447.14147779 22.60266705 445.35979068 22.59600013 C440.47163865 22.58154405 435.5836552 22.5857908 430.69549394 22.59316695 C425.42066759 22.5978959 420.14587786 22.58539116 414.87106323 22.57514954 C404.54021216 22.55795077 394.20942188 22.55712378 383.8785602 22.56236244 C375.48161396 22.56640343 367.0846857 22.56496142 358.68774033 22.55961418 C357.49275542 22.55886576 356.29777051 22.55811734 355.06657394 22.55734624 C352.63897952 22.55581476 350.2113851 22.55427642 347.78379069 22.55273127 C325.01656861 22.53900228 302.2493809 22.54444668 279.4821596 22.55591648 C258.65424143 22.56584888 237.8264121 22.55290876 216.99850763 22.52898229 C195.61158213 22.50459877 174.22469802 22.49498161 152.8377589 22.50163502 C140.83095204 22.50512894 128.8242135 22.5028837 116.81741714 22.48538399 C106.59609131 22.47067137 96.37488191 22.47001431 86.15355839 22.4874549 C80.93915487 22.49597502 75.72495945 22.4980896 70.51056671 22.48280334 C65.7349015 22.46897663 60.95962305 22.47369361 56.18398033 22.49304258 C54.45861667 22.49680907 52.73322219 22.49386192 51.00788595 22.48343093 C35.62617002 22.39706718 25.57312367 25.08182517 15 37 Z " fill="#FEFEFE" transform="translate(0,0)"/>
<path d="M0 0 C1.78342256 -0.00461316 3.56684131 -0.01096885 5.35025215 -0.01890898 C10.2339366 -0.03556843 15.11730737 -0.0273713 20.00099277 -0.0149641 C25.27442587 -0.0059021 30.54780559 -0.01988906 35.82122803 -0.03088379 C46.14514121 -0.04866127 56.46893801 -0.04483243 66.79285574 -0.03323323 C75.18403674 -0.02419617 83.57518515 -0.02297609 91.96636963 -0.02732849 C93.16108356 -0.02794142 94.35579748 -0.02855436 95.58671486 -0.02918586 C98.01382622 -0.03046478 100.44093757 -0.03176163 102.86804891 -0.03307623 C125.62194012 -0.04447977 148.37576685 -0.03137184 171.12964749 -0.00987476 C190.64945223 0.007996 210.16916182 0.00489183 229.68896484 -0.0135498 C252.36197158 -0.03496047 275.03492181 -0.04338115 297.70793724 -0.03110075 C300.12607192 -0.02982657 302.54420661 -0.02856908 304.96234131 -0.02732849 C306.74694926 -0.02640284 306.74694926 -0.02640284 308.56760991 -0.02545848 C316.94777669 -0.02200618 325.32790761 -0.02783137 333.70806885 -0.0372467 C343.92203273 -0.04847022 354.13587366 -0.04541912 364.34982347 -0.02412373 C369.56018623 -0.01361817 374.77034406 -0.00948321 379.98070526 -0.02272034 C384.75259677 -0.03466008 389.52409385 -0.02805545 394.2959497 -0.00681013 C396.01990487 -0.0023508 397.74389353 -0.00459528 399.46782708 -0.01431328 C412.92246083 -0.08432638 422.24252336 1.55478189 432.26513672 11.13684082 C439.34451119 18.76948789 441.76951721 26.35236631 441.73178101 36.62811279 C441.73631212 37.53681586 441.74084323 38.44551893 441.74551165 39.38175845 C441.7581549 42.42159045 441.75653531 45.46124327 441.75488281 48.50109863 C441.76086814 50.6827772 441.7676737 52.86445365 441.77523804 55.04612732 C441.79290572 60.96981959 441.79759378 66.89345407 441.79886961 72.81717014 C441.80029144 76.51958631 441.80456168 80.22198781 441.80986404 83.92440033 C441.82932355 97.51288899 441.83639426 111.10133214 441.83471318 124.68983373 C441.83395121 134.7290265 441.84953658 144.7680948 441.87597656 154.80725098 C441.90660553 166.4770914 441.92349229 178.14683985 441.92205012 189.81672263 C441.92154064 195.98965749 441.92721593 202.16243296 441.94840622 208.33533478 C441.96779949 214.14335528 441.96790534 219.95106454 441.95337296 225.75909615 C441.95128507 227.88670622 441.95598451 230.01433582 441.96809387 232.14191246 C442.04744387 247.05331479 441.45029299 257.16737327 430.69482422 268.37902832 C423.40782007 275.33422492 415.59760259 277.98030333 405.75769043 277.86869812 C404.91781035 277.87126139 404.07793027 277.87382467 403.21259928 277.87646562 C400.4180631 277.88137939 397.62407566 277.86495063 394.82958984 277.84851074 C392.8185833 277.84766395 390.80757583 277.84814063 388.79656982 277.84983826 C383.35085454 277.85069759 377.90533823 277.83308169 372.45966911 277.81211638 C366.76352833 277.79333938 361.06738278 277.79159833 355.37121582 277.78804016 C344.59081789 277.77872272 333.81051143 277.75411295 323.03015375 277.72399169 C310.75451938 277.69043836 298.47888061 277.67395931 286.20321178 277.65890539 C260.95686398 277.62756317 235.71064154 277.57255478 210.46435547 277.50793457 C210.46435547 300.93793457 210.46435547 324.36793457 210.46435547 348.50793457 C216.73435547 348.50793457 223.00435547 348.50793457 229.46435547 348.50793457 C234.53430524 348.94745087 239.49521979 349.4498328 244.52685547 350.13293457 C245.88240311 350.31003694 247.23795332 350.48711972 248.59350586 350.66418457 C334.74802196 362.1612285 334.74802196 362.1612285 347.58935547 375.75793457 C348.75944177 379.43534867 349.268075 382.73266485 348.46435547 386.50793457 C346.48393387 390.02868408 344.36723874 392.20697348 340.46435547 393.50793457 C333.36105581 394.29964787 327.33482402 392.55425728 320.65185547 390.32043457 C303.80970556 384.78780664 286.82007092 380.94451612 269.31030273 378.24987793 C266.52960122 377.8208582 263.75189807 377.37538039 260.97412109 376.92785645 C240.80945149 373.72746432 221.00657844 372.1472853 200.58935547 372.25793457 C199.58210419 372.26070404 198.57485291 372.26347351 197.53707886 372.2663269 C183.08475986 372.31288398 168.8151844 372.68845949 154.46435547 374.50793457 C152.60122815 374.71764008 150.73794022 374.92592245 148.87451172 375.13293457 C135.53305645 376.68006456 122.42638646 379.11071114 109.29443359 381.90686035 C106.77538207 382.4418763 104.25365214 382.96012361 101.72998047 383.47277832 C91.89556501 385.51623639 82.30418613 388.20572911 72.6965332 391.13439941 C58.99359788 395.27255578 58.99359788 395.27255578 54.21435547 392.88293457 C50.25199065 389.46089223 48.65234667 387.26251908 48.08935547 382.00793457 C48.50597395 378.11949544 48.91226305 376.45879142 51.46435547 373.50793457 C57.79016292 369.90776305 64.20819391 367.94823031 71.21435547 366.07043457 C72.31255615 365.77040527 73.41075684 365.47037598 74.54223633 365.16125488 C77.84644592 364.2644356 81.15426686 363.38278337 84.46435547 362.50793457 C85.40617676 362.25833984 86.34799805 362.00874512 87.31835938 361.75158691 C105.53776731 356.96227561 123.78804907 353.88736784 142.46435547 351.50793457 C143.65158203 351.35493896 143.65158203 351.35493896 144.86279297 351.19885254 C159.10494589 349.37854277 173.08219843 348.50793457 187.46435547 348.50793457 C187.46435547 325.07793457 187.46435547 301.64793457 187.46435547 277.50793457 C178.22781982 277.53935547 178.22781982 277.53935547 168.8046875 277.57141113 C148.46863111 277.63766511 128.13257049 277.6820675 107.7964344 277.71518326 C95.46563333 277.73579723 83.1349346 277.76389571 70.80419922 277.80969238 C60.05513085 277.84959563 49.30613661 277.87537585 38.55699623 277.88428855 C32.86684419 277.88949734 27.17690421 277.90171594 21.48682022 277.9308548 C16.12704418 277.95807882 10.76756681 277.96636537 5.4077282 277.9603653 C3.44459216 277.9614624 1.48144575 277.96937443 -0.48163033 277.98475647 C-14.70630442 278.09071473 -24.61690588 277.20278242 -35.33642578 266.93762207 C-42.855045 258.6310836 -44.84416649 249.20603836 -44.80307007 238.29910278 C-44.80760118 237.40502508 -44.81213229 236.51094737 -44.81680071 235.5897764 C-44.82940161 232.61143325 -44.82782714 229.63327398 -44.82617188 226.65490723 C-44.83215974 224.51234198 -44.83896589 222.3697789 -44.8465271 220.22721863 C-44.86416623 214.41934333 -44.86888156 208.61152699 -44.87015867 202.80362749 C-44.87158181 199.17255957 -44.87585446 195.54150656 -44.88115311 191.91044235 C-44.89964525 179.23589885 -44.90782458 166.56139737 -44.90625 153.88684082 C-44.90504827 142.08298286 -44.92615906 130.27930765 -44.95773733 118.47549593 C-44.98390718 108.3308799 -44.99461702 98.18632354 -44.99333918 88.04167402 C-44.99282984 81.98725732 -44.99849837 75.93300315 -45.01969528 69.87862015 C-45.03908988 64.18383823 -45.03919353 58.48937372 -45.02466202 52.79458046 C-45.02257448 50.70889509 -45.02727145 48.62318978 -45.03938293 46.53753853 C-45.14869722 26.40356857 -45.14869722 26.40356857 -40.53564453 18.50793457 C-39.97876953 17.47668457 -39.42189453 16.44543457 -38.84814453 15.38293457 C-27.9480726 1.83149379 -16.54340638 -0.09325702 0 0 Z M-19.53564453 28.50793457 C-21.16561859 31.76788268 -20.68740734 35.36329552 -20.68954468 38.94622803 C-20.69392693 39.82983434 -20.69830919 40.71344066 -20.70282423 41.62382293 C-20.71624289 44.60244817 -20.72239796 47.58104381 -20.72851562 50.55969238 C-20.73641416 52.6881575 -20.74468295 54.81662127 -20.7532959 56.94508362 C-20.7795441 63.95039587 -20.794826 70.95571419 -20.80908203 77.96105957 C-20.8144405 80.36989089 -20.819818 82.77872217 -20.82521439 85.18755341 C-20.84684692 95.20542507 -20.86558476 105.22329511 -20.87683678 115.24118423 C-20.89308276 129.61224533 -20.92627231 143.98303631 -20.98323762 158.35399556 C-21.02190026 168.45086146 -21.0414651 178.547655 -21.04675734 188.644593 C-21.05041573 194.67890778 -21.06248906 200.71293466 -21.09486008 206.74716949 C-21.12487585 212.4238339 -21.13127553 218.10003524 -21.11947632 223.77676201 C-21.11925504 225.86091015 -21.12760446 227.94507936 -21.14513016 230.02915382 C-21.16775139 232.87389853 -21.15955943 235.7169541 -21.14364624 238.56170654 C-21.15752833 239.38720104 -21.17141042 240.21269553 -21.18571317 241.063205 C-21.12884894 245.1866366 -20.75647295 247.74155777 -18.12264442 251.00457382 C-14.15532709 254.84362558 -12.11579534 254.63458555 -6.66613293 254.64215565 C-5.58858014 254.64568399 -5.58858014 254.64568399 -4.48925862 254.64928362 C-2.05753671 254.65599456 0.37413202 254.65551477 2.80586243 254.65510559 C4.55706606 254.65840291 6.30826894 254.66212819 8.05947083 254.66624707 C12.89096908 254.67629011 17.7224549 254.67998755 22.55396211 254.68263638 C27.75721224 254.68653258 32.96045246 254.69611132 38.16369629 254.70484924 C50.73844764 254.72463226 63.31319982 254.73468184 75.88796285 254.74357703 C81.80423252 254.74795661 87.72050129 254.75332425 93.63677025 254.7585659 C113.29414973 254.77557943 132.95152865 254.79007498 152.60891438 254.79731464 C157.71266493 254.79922465 162.81641548 254.80114497 167.92016602 254.80310059 C169.18873474 254.80358433 170.45730346 254.80406807 171.76431366 254.80456647 C192.32762389 254.81287191 212.89087605 254.83821696 233.45416091 254.87068126 C254.54819103 254.90371303 275.64219159 254.92175985 296.73624772 254.92495888 C308.58705793 254.9271275 320.43778343 254.93592753 332.2885685 254.96142006 C342.3784193 254.98307401 352.46816484 254.99120368 362.55803625 254.98145328 C367.70900465 254.97689324 372.8597556 254.97889331 378.0106945 254.99821472 C382.72279465 255.01573794 387.43451698 255.01493751 392.14662053 254.99931743 C393.85458374 254.99692478 395.56257238 255.00134993 397.27049652 255.01314608 C399.58656868 255.02815631 401.90128317 255.01866959 404.21732044 255.0029192 C405.50538682 255.00389601 406.79345319 255.00487281 408.12055188 255.00587922 C412.0649832 254.41849171 413.66168459 253.29060942 416.46435547 250.50793457 C419.04048795 246.64373585 418.7454948 243.46099594 418.72505188 238.98062134 C418.72887743 238.09953858 418.73270297 237.21845583 418.73664445 236.31067359 C418.74699592 233.3465821 418.74297822 230.38268354 418.73901367 227.4185791 C418.74335898 225.2981956 418.74854152 223.17781366 418.75450134 221.05743408 C418.76792271 215.28884733 418.76846648 209.52032596 418.76593804 203.75172663 C418.76487036 198.9404465 418.76974656 194.12917972 418.77454346 189.31790245 C418.78564972 177.96896426 418.78606991 166.62005916 418.7800293 155.27111816 C418.7739888 143.55420422 418.78629996 131.83741035 418.80759937 120.1205169 C418.82520024 110.06949824 418.83121908 100.01851786 418.82796162 89.96748435 C418.82614605 83.96069253 418.82881216 77.95398632 418.84267616 71.9472084 C418.85522507 66.29851034 418.85333821 60.64999972 418.84026527 55.00130463 C418.83789345 52.92642784 418.84065575 50.85153799 418.8488884 48.77667618 C418.8593064 45.94730318 418.85129493 43.11856491 418.83857727 40.28921509 C418.84595156 39.46538082 418.85332584 38.64154656 418.86092359 37.79274762 C418.81728519 33.18751441 418.4579735 30.08644953 415.46435547 26.50793457 C411.35466941 23.44600991 408.31474164 23.13103485 403.24411106 23.12482452 C402.16434793 23.11738525 402.16434793 23.11738525 401.06277141 23.10979569 C398.64392832 23.09681343 396.22563488 23.10523236 393.80677795 23.11352539 C392.05781949 23.10863773 390.30886425 23.10244851 388.55991453 23.0950675 C383.74847931 23.07862911 378.93720752 23.08099383 374.125754 23.08644247 C368.93888235 23.08910785 363.75205475 23.07459019 358.56520081 23.06234741 C348.40172394 23.04127084 338.23830409 23.03675382 328.07480795 23.0385353 C319.81600807 23.03984173 311.55722601 23.03604487 303.29842949 23.02861023 C300.921607 23.02651109 298.54478451 23.02441349 296.16796201 23.02231741 C294.98504182 23.02127388 293.80212162 23.02023035 292.58335536 23.0191552 C270.20064585 23.00024407 247.81796911 23.0013058 225.43525492 23.00812453 C204.94715245 23.01370146 184.45917497 22.99286969 163.97110171 22.95976406 C142.94589293 22.92605353 121.92074407 22.91085539 100.89550775 22.91548109 C89.08661924 22.91772834 77.27784626 22.91244516 65.46898079 22.8875885 C55.41653207 22.86660951 45.36426225 22.86294962 35.31180627 22.88188809 C30.18090823 22.89106666 25.05034407 22.89212409 19.91947174 22.87153244 C15.22462343 22.85289868 10.53038423 22.85724015 5.83555966 22.88007826 C4.13507441 22.88428328 2.43454315 22.88000049 0.73410643 22.86648232 C-1.57452247 22.84937567 -3.88101165 22.86297414 -6.18955898 22.88431549 C-7.47258166 22.88404311 -8.75560433 22.88377072 -10.07750648 22.88349009 C-14.6429359 23.70788089 -16.2712412 25.26528145 -19.53564453 28.50793457 Z " fill="#BF3138" transform="translate(53.53564453125,22.4920654296875)"/>
<path d="M0 0 C7.074375 -0.04125 14.14875 -0.0825 21.4375 -0.125 C24.76026001 -0.15231201 24.76026001 -0.15231201 28.15014648 -0.18017578 C29.93212645 -0.1860243 31.71410912 -0.191119 33.49609375 -0.1953125 C34.40008911 -0.20554443 35.30408447 -0.21577637 36.23547363 -0.22631836 C47.67804207 -0.22941807 58.49514735 2.468231 67.40234375 10.04296875 C75.4337742 18.49317024 77.63520684 26.84816594 77.54345703 38.23925781 C77.17008725 47.49031622 74.10903915 55.76421971 67.66015625 62.54296875 C57.21347803 71.71146516 45.44228755 73.17688968 32.03125 73.09765625 C31.21366211 73.09664917 30.39607422 73.09564209 29.55371094 73.09460449 C26.53579277 73.08942147 23.51789479 73.07546071 20.5 73.0625 C13.735 73.041875 6.97 73.02125 0 73 C0 48.91 0 24.82 0 0 Z " fill="#E07B60" transform="translate(247,64)"/>
<path d="M0 0 C8.20017765 5.3261604 14.29452904 12.84379042 17.33203125 22.16015625 C19.43209693 33.28854167 17.97307806 44.51058024 12 54.125 C4.79588017 64.18592597 -5.23007634 69.15445185 -17.25 71.375 C-30.752154 72.69838993 -42.77941816 69.30104197 -53.28515625 60.7109375 C-57.49321893 56.79770724 -60.06404387 52.65859064 -62.25 47.375 C-62.60835937 46.65054688 -62.96671875 45.92609375 -63.3359375 45.1796875 C-64.60055718 41.29935873 -64.59179626 37.68211293 -64.5625 33.625 C-64.55686035 32.81949707 -64.5512207 32.01399414 -64.54541016 31.18408203 C-64.32316241 20.32034794 -60.99725556 13.20554912 -53.36328125 5.4609375 C-38.75816878 -8.0251192 -17.33351156 -9.49781455 0 0 Z " fill="#E07B60" transform="translate(220.25,67.625)"/>
<path d="M0 0 C6.27 -0.04125 12.54 -0.0825 19 -0.125 C20.96324219 -0.14320801 22.92648437 -0.16141602 24.94921875 -0.18017578 C26.52864306 -0.18602433 28.10807042 -0.19111903 29.6875 -0.1953125 C30.48865234 -0.20554443 31.28980469 -0.21577637 32.11523438 -0.22631836 C41.60482038 -0.2292186 49.86110049 1.92931597 56.765625 8.7421875 C62.81847811 15.58837572 63.53777418 21.11292262 63.30859375 30.0703125 C62.75772804 37.08513408 60.55257768 40.82199755 55.375 45.4375 C53.59965057 46.86010533 52.03627518 47.98186241 50 49 C51.65315297 54.24195972 54.92133347 58.30568696 58.125 62.6875 C59.23603515 64.2091351 60.34302759 65.733733 61.4453125 67.26171875 C62.18031982 68.26658325 62.18031982 68.26658325 62.93017578 69.29174805 C64 71 64 71 64 73 C58.03025804 73.9457017 51.85633555 74.91363011 46 73 C41.39915202 69.31435539 38.60648025 63.98552111 35.95117188 58.80932617 C34.90935377 56.75156367 34.90935377 56.75156367 33 54 C30.21101681 53.61378774 27.67080331 53.39768076 24.875 53.3125 C22.27625 53.209375 19.6775 53.10625 17 53 C17 59.6 17 66.2 17 73 C11.39 73 5.78 73 0 73 C0 48.91 0 24.82 0 0 Z " fill="#6B0E24" transform="translate(237,153)"/>
<path d="M0 0 C19.8 0 39.6 0 60 0 C60 5.94 60 11.88 60 18 C48.45 18 36.9 18 25 18 C25 20.97 25 23.94 25 27 C35.23 27 45.46 27 56 27 C56 32.94 56 38.88 56 45 C45.77 45 35.54 45 25 45 C25 47.97 25 50.94 25 54 C37.21 54 49.42 54 62 54 C62 60.27 62 66.54 62 73 C41.54 73 21.08 73 0 73 C0 48.91 0 24.82 0 0 Z " fill="#E07C62" transform="translate(333,64)"/>
<path d="M0 0 C3.80030593 2.63360519 6.32459669 4.82777814 7.42578125 9.5078125 C2.81043906 13.57259357 -1.83007687 17.59389545 -6.57421875 21.5078125 C-9.1086856 20.33805857 -11.26113596 19.03555692 -13.57421875 17.4453125 C-18.34266337 14.36569201 -22.91000944 13.73638101 -28.57421875 14.5078125 C-32.82804028 16.13675606 -36.31074042 18.48385103 -38.57421875 22.5078125 C-40.4878359 28.75081882 -40.65667786 35.92068343 -38.01171875 41.9453125 C-35.6936123 45.90642773 -32.92527366 48.07525659 -28.57421875 49.5078125 C-21.35714073 50.57262729 -16.78515348 47.99354117 -10.57421875 44.5078125 C-9.24452327 43.83391921 -7.91242676 43.16463937 -6.57421875 42.5078125 C-6.06632812 42.95511719 -5.5584375 43.40242188 -5.03515625 43.86328125 C-0.927796 47.47068192 3.20899246 51.02896175 7.42578125 54.5078125 C3.85838028 62.40705751 -2.97384743 65.42402713 -10.70703125 68.52734375 C-21.95930991 72.37519381 -33.83491155 71.41982517 -44.57421875 66.5078125 C-55.08614108 60.95620352 -61.45006709 52.94316987 -65.15625 41.75 C-66.9270697 32.25046255 -66.89205648 20.80535019 -61.57421875 12.5078125 C-56.83764134 6.19857972 -51.71582872 0.95413071 -44.57421875 -2.4921875 C-43.79949219 -2.88277344 -43.02476563 -3.27335937 -42.2265625 -3.67578125 C-28.35957625 -9.720365 -12.84031807 -7.44309788 0 0 Z " fill="#E07B61" transform="translate(143.57421875,68.4921875)"/>
<path d="M0 0 C3.19342163 2.13963831 6.14231425 4.43096938 9 7 C7.55218207 10.44428265 5.72305391 12.36130962 2.875 14.75 C2.15054688 15.36359375 1.42609375 15.9771875 0.6796875 16.609375 C0.12539062 17.06828125 -0.42890625 17.5271875 -1 18 C-1.74765625 17.57847656 -2.4953125 17.15695313 -3.265625 16.72265625 C-4.25046875 16.17480469 -5.2353125 15.62695312 -6.25 15.0625 C-7.71179688 14.24458984 -7.71179688 14.24458984 -9.203125 13.41015625 C-15.38599105 10.29281736 -21.94397736 10.06628218 -28.6640625 11.61328125 C-35.03282706 13.79713254 -38.83957875 17.02901963 -42 23 C-44.39843525 30.12082019 -44.04762501 38.68886491 -41 45.5 C-37.73231501 51.24178934 -33.14057861 53.95314046 -27 56 C-25.27386403 56.11990928 -23.54275279 56.17529794 -21.8125 56.1875 C-20.91144531 56.20167969 -20.01039063 56.21585938 -19.08203125 56.23046875 C-15.12918426 56.0224449 -15.12918426 56.0224449 -8 54 C-8 46.74 -8 39.48 -8 32 C-2.72 32 2.56 32 8 32 C8.18430872 36.18534393 8.34316377 40.35654469 8.43945312 44.54272461 C8.47957871 45.9641088 8.53409912 47.38516486 8.60351562 48.80541992 C9.16449895 60.58194495 9.16449895 60.58194495 6.34838867 64.01123047 C4.26288652 65.34690834 2.34469176 66.21815794 0 67 C-0.84949219 67.36609375 -1.69898438 67.7321875 -2.57421875 68.109375 C-3.27160156 68.32078125 -3.96898437 68.5321875 -4.6875 68.75 C-5.39261719 68.97171875 -6.09773438 69.1934375 -6.82421875 69.421875 C-17.94059178 72.3755971 -30.84287483 72.82203164 -41.31640625 67.6796875 C-51.40141087 61.36738475 -58.41784266 53.23684624 -61.4921875 41.69921875 C-63.62164778 30.38031835 -61.20032261 20.9096118 -55.25 11.1875 C-52.09095858 6.77898697 -48.66038608 3.75169554 -44 1 C-42.77410156 0.26910156 -42.77410156 0.26910156 -41.5234375 -0.4765625 C-29.39579004 -6.59162981 -12.03020721 -6.35385373 0 0 Z " fill="#6C1027" transform="translate(179,156)"/>
<path d="M0 0 C5.61 0 11.22 0 17 0 C17 19.47 17 38.94 17 59 C28.88 59 40.76 59 53 59 C53 63.62 53 68.24 53 73 C35.51 73 18.02 73 0 73 C0 48.91 0 24.82 0 0 Z " fill="#6B0F25" transform="translate(314,153)"/>
<path d="M0 0 C5.61 0 11.22 0 17 0 C17 24.09 17 48.18 17 73 C11.39 73 5.78 73 0 73 C0 48.91 0 24.82 0 0 Z " fill="#6C1027" transform="translate(203,153)"/>
<path d="M0 0 C4.57634752 1.9712161 7.61089535 4.53100058 10.01953125 8.9140625 C12.02237367 14.7296554 12.02237367 21.0437821 10.01953125 26.859375 C7.22046108 31.95292106 3.3908921 34.69806151 -2.12890625 36.38671875 C-7.16926869 37.09413804 -10.35840101 36.256876 -14.5546875 33.59765625 C-17.89556916 31.02774728 -19.80730202 28.35153143 -21.12890625 24.38671875 C-22.04126331 12.34659688 -22.04126331 12.34659688 -19.44140625 6.76171875 C-13.55053968 0.71163957 -8.52620678 -2.45617333 0 0 Z " fill="#FEFCFC" transform="translate(202.12890625,82.61328125)"/>
<path d="M0 0 C18.8974359 0 18.8974359 0 25.5 6.4375 C28.21915565 12.89549466 28.01635502 19.95093493 25.8125 26.5625 C22.41913987 31.12598432 19.29533324 32.8818667 14 35 C9.38 35 4.76 35 0 35 C0 23.45 0 11.9 0 0 Z " fill="#FEFDFD" transform="translate(272,83)"/>
<path d="M0 0 C3.34125 -0.0825 6.6825 -0.165 10.125 -0.25 C11.16672363 -0.28641602 12.20844727 -0.32283203 13.28173828 -0.36035156 C19.03094319 -0.42891296 22.51620346 0.01758646 27 4 C29.7110181 8.06652715 29.51355905 11.2312374 29 16 C27.74323252 19.77030245 26.83428809 21.44160781 23.53125 23.65234375 C18.79155687 25.46118681 14.64154815 25.32596359 9.625 25.1875 C4.860625 25.0946875 4.860625 25.0946875 0 25 C0 16.75 0 8.5 0 0 Z " fill="#FDFDFD" transform="translate(254,167)"/>
<path d="M0 0 C10.7771261 -0.43108504 10.7771261 -0.43108504 15 3 C17 5 17 5 17.25 7.875 C17.0069394 10.9132575 16.69131016 12.50754293 15 15 C10.25368713 18.16420858 5.63243123 17.12112755 0 17 C0 11.39 0 5.78 0 0 Z " fill="#0A0A0A" transform="translate(253,237)"/>
<path d="M0 0 C10.7771261 -0.43108504 10.7771261 -0.43108504 15 3 C17 5 17 5 17.25 7.875 C17.0069394 10.9132575 16.69131016 12.50754293 15 15 C10.25368713 18.16420858 5.63243123 17.12112755 0 17 C0 11.39 0 5.78 0 0 Z " fill="#0A0A0A" transform="translate(217,237)"/>
<path d="M0 0 C3.84219511 2.0437208 4.77408944 3.26911288 6.0625 7.4375 C5.98713481 11.73331579 5.03450339 13.05219671 2 16 C-1.24742327 17.62371163 -4.50225787 17.69420836 -8 17 C-11.0625 14.4375 -11.0625 14.4375 -13 11 C-13.06817573 7.04580795 -12.5665223 4.88377478 -10.4375 1.5625 C-7.00298234 -0.63911388 -3.90504499 -0.7515662 0 0 Z " fill="#0F0F0F" transform="translate(373,237)"/>
<path d="M0 0 C2.70839553 1.39577401 3.88975016 2.63240261 6 5 C6.63795207 8.90745641 6.23129757 11.711772 4 15 C-0.03559625 17.6903975 -3.26348721 17.65832398 -8 17 C-10.5625 15.5625 -10.5625 15.5625 -12 13 C-12.5977143 9.86774718 -12.65395074 7.12634344 -12 4 C-8.56466286 -0.26814615 -5.30731047 -0.83799639 0 0 Z " fill="#0D0D0D" transform="translate(103,237)"/>
<path d="M0 0 C9 -0.36 9 -0.36 13.125 1.125 C15 3 15 3 15.4375 5.9375 C15 9 15 9 13.875 11.125 C13.441875 12.053125 13.441875 12.053125 13 13 C13.78309467 15.23470405 13.78309467 15.23470405 15 17 C12.625 16.6875 12.625 16.6875 10 16 C9.34 15.01 8.68 14.02 8 13 C5.94074861 12.27617533 5.94074861 12.27617533 4 12 C4 13.65 4 15.3 4 17 C2.68 17 1.36 17 0 17 C0 11.39 0 5.78 0 0 Z " fill="#151515" transform="translate(429,237)"/>
<path d="M0 0 C1.5675 -0.04125 3.135 -0.0825 4.75 -0.125 C5.63171875 -0.14820313 6.5134375 -0.17140625 7.421875 -0.1953125 C10.17612763 0.013343 11.73796112 0.42373761 14 2 C15.19262807 6.60013685 15.12936079 8.88323581 13 13 C13.78309467 15.23470405 13.78309467 15.23470405 15 17 C12.625 16.6875 12.625 16.6875 10 16 C9.34 15.01 8.68 14.02 8 13 C5.94074861 12.27617533 5.94074861 12.27617533 4 12 C4 13.65 4 15.3 4 17 C2.68 17 1.36 17 0 17 C0 11.39 0 5.78 0 0 Z " fill="#111111" transform="translate(69,237)"/>
<path d="M0 0 C1.5675 -0.04125 3.135 -0.0825 4.75 -0.125 C5.63171875 -0.14820313 6.5134375 -0.17140625 7.421875 -0.1953125 C10.17835022 0.01351138 11.73683764 0.42140594 14 2 C15.58139535 7.79844961 15.58139535 7.79844961 14.0625 10.9375 C10.74491303 12.64655995 7.69558797 12.18175023 4 12 C4 13.65 4 15.3 4 17 C2.68 17 1.36 17 0 17 C0 11.39 0 5.78 0 0 Z " fill="#121212" transform="translate(386,237)"/>
<path d="M0 0 C5.625 1.125 5.625 1.125 8.3125 4.5625 C8.82425781 5.20316406 9.33601563 5.84382812 9.86328125 6.50390625 C10.23839844 6.99761719 10.61351563 7.49132812 11 8 C11.33 5.36 11.66 2.72 12 0 C13.32 0 14.64 0 16 0 C16 5.61 16 11.22 16 17 C14.68 17 13.36 17 12 17 C10.078125 15.03125 10.078125 15.03125 8.25 12.5 C7.32960938 11.24703125 7.32960938 11.24703125 6.390625 9.96875 C5.70226562 8.99421875 5.70226562 8.99421875 5 8 C4.67 10.97 4.34 13.94 4 17 C2.68 17 1.36 17 0 17 C0 11.39 0 5.78 0 0 Z " fill="#151515" transform="translate(116,237)"/>
<path d="M0 0 C4.18099116 1.04524779 4.72845936 1.4105742 7.25 4.5625 C8.03117188 5.52349609 8.03117188 5.52349609 8.828125 6.50390625 C9.21484375 6.99761719 9.6015625 7.49132812 10 8 C10.33 5.36 10.66 2.72 11 0 C12.32 0 13.64 0 15 0 C15 5.61 15 11.22 15 17 C10.81900884 15.95475221 10.27154064 15.5894258 7.75 12.4375 C7.22921875 11.79683594 6.7084375 11.15617188 6.171875 10.49609375 C5.78515625 10.00238281 5.3984375 9.50867188 5 9 C4.67 11.64 4.34 14.28 4 17 C2.68 17 1.36 17 0 17 C0 11.39 0 5.78 0 0 Z " fill="#111111" transform="translate(193,237)"/>
<path d="M0 0 C4.29 0 8.58 0 13 0 C13 0.99 13 1.98 13 3 C10.03 3 7.06 3 4 3 C4 4.32 4 5.64 4 7 C6.64 7 9.28 7 12 7 C12 7.99 12 8.98 12 10 C9.36 10 6.72 10 4 10 C4 11.32 4 12.64 4 14 C6.97 14 9.94 14 13 14 C13 14.99 13 15.98 13 17 C8.71 17 4.42 17 0 17 C0 11.39 0 5.78 0 0 Z " fill="#0B0B0B" transform="translate(321,237)"/>
<path d="M0 0 C3.96 0 7.92 0 12 0 C12 0.99 12 1.98 12 3 C9.36 3 6.72 3 4 3 C4 4.32 4 5.64 4 7 C6.31 7 8.62 7 11 7 C11 7.99 11 8.98 11 10 C8.69 10 6.38 10 4 10 C4 11.32 4 12.64 4 14 C6.97 14 9.94 14 13 14 C13 14.99 13 15.98 13 17 C8.71 17 4.42 17 0 17 C0 11.39 0 5.78 0 0 Z " fill="#090909" transform="translate(409,237)"/>
<path d="M0 0 C3.96 0 7.92 0 12 0 C12 0.99 12 1.98 12 3 C9.36 3 6.72 3 4 3 C4 4.32 4 5.64 4 7 C6.31 7 8.62 7 11 7 C11 7.99 11 8.98 11 10 C8.69 10 6.38 10 4 10 C4 11.32 4 12.64 4 14 C6.97 14 9.94 14 13 14 C13 14.99 13 15.98 13 17 C8.71 17 4.42 17 0 17 C0 11.39 0 5.78 0 0 Z " fill="#090909" transform="translate(172,237)"/>
<path d="M0 0 C3.96 0 7.92 0 12 0 C12 0.99 12 1.98 12 3 C9.03 3 6.06 3 3 3 C3 4.32 3 5.64 3 7 C5.64 7 8.28 7 11 7 C11 7.99 11 8.98 11 10 C8.36 10 5.72 10 3 10 C3 11.32 3 12.64 3 14 C6.3 14 9.6 14 13 14 C13 14.99 13 15.98 13 17 C8.71 17 4.42 17 0 17 C0 11.39 0 5.78 0 0 Z " fill="#060606" transform="translate(278,237)"/>
<path d="M0 0 C1.32 0 2.64 0 4 0 C5.65 3.3 7.3 6.6 9 10 C10.65 6.7 12.3 3.4 14 0 C14.99 0 15.98 0 17 0 C16.34496718 4.05819183 15.05440879 7.53971282 13.4375 11.3125 C12.98246094 12.38113281 12.52742188 13.44976562 12.05859375 14.55078125 C11.70925781 15.35902344 11.35992187 16.16726562 11 17 C9.35 17 7.7 17 6 17 C4.9932996 14.73192796 3.99448234 12.46092246 3 10.1875 C2.71382813 9.54490234 2.42765625 8.90230469 2.1328125 8.24023438 C0.86288959 5.32243531 0 3.21734286 0 0 Z " fill="#121212" transform="translate(297,237)"/>
<path d="M0 0 C4.29 0 8.58 0 13 0 C13 0.99 13 1.98 13 3 C10.03 3 7.06 3 4 3 C4 4.65 4 6.3 4 8 C6.64 8 9.28 8 12 8 C12 8.99 12 9.98 12 11 C9.36 11 6.72 11 4 11 C4 12.98 4 14.96 4 17 C2.68 17 1.36 17 0 17 C0 11.39 0 5.78 0 0 Z " fill="#0B0B0B" transform="translate(49,237)"/>
<path d="M0 0 C4.62 0 9.24 0 14 0 C14 0.99 14 1.98 14 3 C12.35 3 10.7 3 9 3 C9 7.62 9 12.24 9 17 C7.68 17 6.36 17 5 17 C5 12.38 5 7.76 5 3 C3.35 3 1.7 3 0 3 C0 2.01 0 1.02 0 0 Z " fill="#0E0E0E" transform="translate(139,237)"/>
<path d="M0 0 C1.8125 1.1875 1.8125 1.1875 3 3 C3.4375 5.5 3.4375 5.5 3 8 C1.3125 9.875 1.3125 9.875 -1 11 C-4.37036311 10.75925978 -5.58798021 10.41201979 -8 8 C-8.36487512 5.15397406 -8.40199375 3.6135694 -6.8125 1.1875 C-4.35092224 -0.42525784 -2.88934264 -0.4334014 0 0 Z " fill="#EAEAEA" transform="translate(372,240)"/>
<path d="M0 0 C2.5625 0.3125 2.5625 0.3125 4.375 1.5 C5.98775784 3.96157776 5.9959014 5.42315736 5.5625 8.3125 C4.375 10.125 4.375 10.125 2.5625 11.3125 C0.0625 11.75 0.0625 11.75 -2.4375 11.3125 C-4.3125 9.625 -4.3125 9.625 -5.4375 7.3125 C-5.14609088 3.23277231 -4.43505664 0.56859701 0 0 Z " fill="#ECECEC" transform="translate(99.4375,239.6875)"/>
<path d="M0 0 C1.32 0 2.64 0 4 0 C4 4.62 4 9.24 4 14 C6.64 14 9.28 14 12 14 C12 14.99 12 15.98 12 17 C8.04 17 4.08 17 0 17 C0 11.39 0 5.78 0 0 Z " fill="#040404" transform="translate(342,237)"/>
<path d="M0 0 C5.42857143 -0.36190476 5.42857143 -0.36190476 7.875 1.1875 C9.40659584 3.65507108 9.42822025 5.14519831 9 8 C7.875 9.8125 7.875 9.8125 6 11 C2.8125 11.1875 2.8125 11.1875 0 11 C0 7.37 0 3.74 0 0 Z " fill="#F1F1F1" transform="translate(257,240)"/>
<path d="M0 0 C5.42857143 -0.36190476 5.42857143 -0.36190476 7.875 1.1875 C9.40659584 3.65507108 9.42822025 5.14519831 9 8 C7.875 9.8125 7.875 9.8125 6 11 C2.8125 11.1875 2.8125 11.1875 0 11 C0 7.37 0 3.74 0 0 Z " fill="#F1F1F1" transform="translate(221,240)"/>
<path d="M0 0 C1.98 0 3.96 0 6 0 C6.38218767 1.65614657 6.71395102 3.32457024 7 5 C6 6 6 6 2.9375 6.0625 C1.4834375 6.0315625 1.4834375 6.0315625 0 6 C0 4.02 0 2.04 0 0 Z " fill="#DDDDDD" transform="translate(433,240)"/>
<path d="M0 0 C2.375 -0.125 2.375 -0.125 5 0 C5.66 0.66 6.32 1.32 7 2 C6.625 4.125 6.625 4.125 6 6 C4.02 6 2.04 6 0 6 C0 4.02 0 2.04 0 0 Z " fill="#E7E7E7" transform="translate(390,240)"/>
<path d="M0 0 C2.375 -0.125 2.375 -0.125 5 0 C5.66 0.66 6.32 1.32 7 2 C6.625 4.125 6.625 4.125 6 6 C4.02 6 2.04 6 0 6 C0 4.02 0 2.04 0 0 Z " fill="#E7E7E7" transform="translate(73,240)"/>
</svg>
